<?xml version="1.0" encoding="utf-8"?>
<!DOCTYPE svg PUBLIC "-//W3C//DTD SVG 1.1//EN" "http://www.w3.org/Graphics/SVG/1.1/DTD/svg11.dtd">
<svg version="1.1" id="Layer_1" xmlns="http://www.w3.org/2000/svg" xmlns:xlink="http://www.w3.org/1999/xlink" x="0px" y="0px" width="46.7px" height="36.7px" viewBox="0 0 46.7 36.7" enable-background="new 0 0 46.7 36.7" xml:space="preserve">
<path id="folder" fill="#8383FF" d="M0,2.9C0,2.9,0.3,0,2.3,0c2,0,11,0,11,0s1,0.2,1.6,1c0.6,0.8,1.3,1.9,1.3,1.9s0.2,0.8,2,0.8s26.2,0,26.2,0s2.4,0.1,2.4,3.1c0,3,0,28.6,0,28.6s0.3,1.4-1.6,1.4c-1.9,0-43.4,0-43.4,0S0,37,0,35.5S0,2.9,0,2.9z"/>
</svg>
