<?xml version="1.0" encoding="utf-8"?>
<!DOCTYPE svg PUBLIC "-//W3C//DTD SVG 1.1//EN" "http://www.w3.org/Graphics/SVG/1.1/DTD/svg11.dtd">
<svg version="1.1" id="Layer_1" xmlns="http://www.w3.org/2000/svg" xmlns:xlink="http://www.w3.org/1999/xlink" x="0px" y="0px" width="123px" height="123px" viewBox="0 0 123 123" enable-background="new 0 0 123 123" xml:space="preserve">
<circle id="blackcircle" cx="61.5" cy="61.5" r="61.5"/>
<path id="small_gear" opacity="0.5" fill="#fff" d="M91.7,64.7l6.7-1.4l-6.5-2.1l6.5-2.2l-6.7-1.3l6.2-2.9l-6.8-0.5l5.8-3.6l-6.8,0.3l5.3-4.3 l-6.8,1.1l4.8-4.9l-6.6,1.8l4.2-5.4l-6.3,2.6l3.6-5.9l-6,3.3l2.8-6.2l-5.6,4l2.1-6.5l-5.1,4.6l1.3-6.7l-4.5,5.2l0.5-6.8l-3.9,5.7 l-0.3-6.8l-3.2,6.1l-1-6.8L63,31.2l-1.8-6.6l-1.7,6.6l-2.6-6.3l-0.9,6.8l-3.3-6l-0.1,6.9l-4-5.6l0.7,6.8l-4.6-5.1l1.5,6.7l-5.2-4.5l2.2,6.5l-5.6-3.9l3,6.2l-6.1-3.2l3.7,5.8l-6.4-2.5l4.3,5.3l-6.6-1.7l4.9,4.8l-6.8-0.9l5.4,4.2l-6.9-0.1l5.9,3.5 l-6.8,0.7l6.2,2.8l-6.7,1.4l6.5,2.1L24.7,64l6.7,1.3l-6.2,2.9l6.8,0.5l-5.8,3.6l6.8-0.3l-5.3,4.3l6.8-1.1l-4.8,4.9l6.6-1.8l-4.2,5.4l6.3-2.6l-3.6,5.9l6-3.3L38.1,90l5.6-4l-2.1,6.5l5.1-4.6l-1.3,6.7l4.5-5.2l-0.5,6.8l3.9-5.7l0.3,6.8l3.2-6.1l1,6.8 l2.5-6.4l1.8,6.6l1.7-6.6l2.6,6.3l0.9-6.8l3.3,6l0.1-6.9l4,5.6l-0.7-6.8l4.6,5.1l-1.5-6.7l5.2,4.5l-2.2-6.5l5.6,3.9l-3-6.2l6.1,3.2l-3.7-5.8l6.4,2.5L87,77.9l6.6,1.7l-4.9-4.8l6.8,0.9l-5.4-4.2l6.9,0.1l-5.9-3.5l6.8-0.7L91.7,64.7z M61.5,89.3 c-15.4,0-27.8-12.5-27.8-27.8c0-15.4,12.5-27.8,27.8-27.8c15.4,0,27.8,12.5,27.8,27.8C89.3,76.9,76.9,89.3,61.5,89.3z"/>
<path id="big_gear" opacity="0.5" fill="#fff" d="M108.6,66.5l10.5-2.2L108.8,61l10.1-3.4l-10.5-2l9.7-4.6l-10.7-0.8l9.1-5.7l-10.7,0.4 l8.3-6.7l-10.6,1.7l7.5-7.6l-10.3,2.9l6.6-8.4l-9.9,4.1l5.5-9.1l-9.4,5.2l4.4-9.7l-8.7,6.2l3.3-10.2l-7.9,7.2l2.1-10.5l-7,8.1l0.8-10.7l-6,8.8L74.2,5.3l-5,9.5L67.6,4.2l-3.8,10L60.9,3.9l-2.7,10.4l-4-9.9L52.8,15l-5.2-9.4l-0.2,10.7l-6.2-8.7l1.1,10.6 l-7.2-7.9l2.3,10.5l-8-7l3.5,10.1l-8.8-6.1l4.6,9.6l-9.5-5l5.7,9l-10-3.9l6.7,8.3l-10.4-2.7l7.6,7.5L8.4,39.2l8.5,6.5L6.2,45.5 l9.2,5.5L4.7,52l9.7,4.4L4,58.7L14.2,62L4,65.4l10.5,2L4.9,72l10.7,0.8l-9.1,5.7l10.7-0.4l-8.3,6.7l10.6-1.7l-7.5,7.6l10.3-2.9l-6.6,8.4l9.9-4.1l-5.5,9.1l9.4-5.2l-4.4,9.7l8.7-6.2l-3.3,10.2l7.9-7.2l-2.1,10.5l7-8.1l-0.8,10.7l6-8.8l0.4,10.7l5-9.5l1.6,10.6 l3.8-10l2.9,10.3l2.7-10.4l4,9.9l1.4-10.6l5.2,9.4l0.2-10.7l6.2,8.7l-1.1-10.6l7.2,7.9l-2.3-10.5l8,7l-3.5-10.1l8.8,6.1l-4.6-9.6l9.5,5l-5.7-9l10,3.9l-6.7-8.3l10.4,2.7l-7.6-7.5l10.6,1.5l-8.5-6.5l10.7,0.2l-9.2-5.5l10.6-1L108.6,66.5z M20.3,46.8 C39.8,7.3,74.5,20.5,77.8,22.7s1,6.8,1,6.8S65.3,50.7,62.7,54.7s-8.5,4.2-8.5,4.2l-30-2.3C18.5,54.5,20.3,48.3,20.3,46.8z M63.6,61.5c0,1.2-0.9,2.1-2.1,2.1s-2.1-0.9-2.1-2.1s0.9-2.1,2.1-2.1S63.6,60.4,63.6,61.5z M70.3,104c-43.8,4.4-51.1-31.9-51-35.9 c0.1-4,5.3-4.5,5.3-4.5s25.1,0.2,29.9,0.3c4.8,0.1,8,5,8,5l13.9,26.7C77.7,101.5,71.5,103.2,70.3,104z M89,95.8 c-3.5,2-6.5-2.3-6.5-2.3S70,71.8,67.7,67.5c-2.3-4.2,0.2-9.5,0.2-9.5l16-25.5c4.4-4.1,9,0.4,10.3,1.1 C120.2,69.2,92.5,93.8,89,95.8z"/>
</svg>
