<?xml version="1.0" encoding="utf-8"?>
<!DOCTYPE svg PUBLIC "-//W3C//DTD SVG 1.1//EN" "http://www.w3.org/Graphics/SVG/1.1/DTD/svg11.dtd">
<svg version="1.1" id="Layer_1" xmlns="http://www.w3.org/2000/svg" xmlns:xlink="http://www.w3.org/1999/xlink" x="0px" y="0px" width="247.542px" height="689.65px" viewBox="0 0 247.542 689.65" enable-background="new 0 0 247.542 689.65" xml:space="preserve">
<radialGradient id="gradient_dome" gradientUnits="userSpaceOnUse" cx="50%" cy="5%" r="50%">
	<stop offset="0" style="stop-color:#FFFFFF"/>
	<stop offset="0.2" style="stop-color:#FBA919"/>
	<stop offset="0.3" style="stop-color:#463014"/>
</radialGradient>
<linearGradient id="gradient_face" gradientUnits="userSpaceOnUse">
	<stop offset="0" style="stop-color:#463014"/>
	<stop offset="0.35" style="stop-color:#FBA919"/>
	<stop offset="0.5" style="stop-color:#FFFFFF"/>
	<stop offset="0.65" style="stop-color:#FBA919"/>
	<stop offset="1" style="stop-color:#463014"/>
</linearGradient>
<linearGradient id="gradient_tusk" x1="0" y1="0" x2="0" y2="100%">
	<stop offset="0.5" style="stop-color:#FFFFFF"/>
	<stop offset="0.9" style="stop-color:#463014"/>
</linearGradient>
<linearGradient id="gradient_chrome" gradientUnits="userSpaceOnUse" x1="93" y1="0" x2="160" y2="0">
	<stop  offset="0" style="stop-color:#A2A2A2"/>
	<stop  offset="0.16" style="stop-color:#444444"/>
	<stop  offset="0.27" style="stop-color:#FFFFFF"/>
	<stop  offset="0.52" style="stop-color:#2F2F2F"/>
	<stop  offset="1" style="stop-color:#6B6B6B"/>
</linearGradient>
<path id="ear_l" fill="#FBA919" stroke="#463014" stroke-width="10" stroke-miterlimit="3" d="M7,21c0,0,52-45,75,16c24,61-30,30-30,30L31,49C31,49,49,12,7,21z"/>
<path id="earline_l" fill="none" stroke="#463014" stroke-width="10" stroke-miterlimit="3" d="M7,21c0,0,57-19,62,39"/>
<path id="ear_r" fill="#FBA919" stroke="#463014" stroke-width="10" stroke-miterlimit="3" d="M244,21c0,0-52-45-75,16c-24,61,30,30,30,30l21-18C220,49,202,12,244,21z"/>
<path id="earline_r" fill="none" stroke="#463014" stroke-width="10" stroke-miterlimit="3" d="M244,21c0,0-57-19-62,39"/>
<path id="tip_bg" fill="#9A9A9A" d="M160,643 160,578 93,578 93,643 115,690 139,690"/>
<path id="shaft" fill="url(#gradient_chrome)" d="M160,296v283c0,0-13,23-20,65h-9c0,0-21-150-35,0h-4V296H160z"/>
<path id="tip_fg" fill="#FFFFFF" d="M131,643 124,690 130,690 140,643"/>
<path id="dome" fill="url(#gradient_dome)" stroke="#463014" stroke-width="10" d="M52,56c0,0,62-58,140-3l-74,131L52,56z"/>
<path id="face" fill="url(#gradient_face)" stroke="#463014" stroke-width="10" d="M122,317c-101-4-83-88-80-116c3-28-6-37-21-45S1,134,9,123s17-6,12-42C2-6,123,110,123,110S244-6,225,82c-6,35,3,31,12,42s3,24-12,32s-24,17-21,45c3,28,22,112-80,116H122z"/>
<path id="tusks" fill="url(#gradient_tusk)" stroke="#463014" stroke-width="10" stroke-miterlimit="3" d="M122,236c0,0-96,17-109-36c0,0-34,88,69,80l40,2l40-2c103,7,69-80,69-80C218,253,122,236,122,236z"/>
<path id="snout_bridge" fill="url(#gradient_face)" stroke="#463014" stroke-width="7" stroke-miterlimit="3" d="M93,187 76,249 172,249 153,187"/>
<path id="snout_tip" fill="url(#gradient_face)" stroke="#463014" stroke-width="10" stroke-miterlimit="3" d="M124,249h47c0,0,28-1,9,37c0,0-16,34-56,34s-54-33-54-33s-22-37,7-37S124,249,124,249z"/>
<path id="nostril_l" fill="#463014" d="M93,261h-10c0,0-11-0-5,8c6,9,9,13,15,14c6-0,10-5,15-14c6-9-5-8-5-8H93"/>
<path id="nostril_r" fill="#463014" d="M153,261h-10c0,0-11-0-5,8c6,9,9,13,15,14c6-0,10-5,15-14c6-9-5-8-5-8H93"/>
<path id="eye_l" fill="#FFFFFF" stroke="#463014" stroke-width="10" d="M52,107c0,0,16-4,40,26C92,134,52,162,52,107z"/>
<path id="eye_r" fill="#FFFFFF" stroke="#463014" stroke-width="10" d="M196,107c0,0-16-4-40,26C156,134,196,162,196,107z"/>
</svg>
