<?xml version="1.0" encoding="utf-8"?>
<!DOCTYPE svg PUBLIC "-//W3C//DTD SVG 1.1//EN" "http://www.w3.org/Graphics/SVG/1.1/DTD/svg11.dtd">
<svg version="1.1" id="Layer_1" xmlns="http://www.w3.org/2000/svg" xmlns:xlink="http://www.w3.org/1999/xlink" x="0px" y="0px" width="123px" height="123px" viewBox="0 0 123 123" enable-background="new 0 0 123 123" xml:space="preserve">
<circle id="blackcircle" cx="61.5" cy="61.5" r="61.5"/>
<path id="questionmark" fill="#777" d="M41.8,18.8c5-3.2,11.2-4.9,18.5-4.9c9.6,0,17.6,2.3,24,6.9c6.4,4.6,9.6,11.4,9.6,20.5c0,5.5-1.4,10.2-4.1,14c-1.6,2.3-4.7,5.2-9.3,8.8l-4.5,3.5c-2.5,1.9-4.1,4.2-4.9,6.7c-0.5,1.6-0.8,4.1-0.8,7.5H52.9 c0.3-7.2,0.9-12.2,2-14.9c1.1-2.7,4-5.9,8.5-9.5l4.7-3.6c1.5-1.2,2.8-2.4,3.7-3.8c1.7-2.3,2.5-4.9,2.5-7.7c0-3.2-0.9-6.2-2.8-8.9 s-5.3-4-10.4-4c-4.9,0-8.4,1.6-10.5,4.9c-2.1,3.3-3.1,6.7-3.1,10.2H29.1C29.6,32.4,33.8,23.8,41.8,18.8z M52.4,90.6h19.1v18.5H52.4 V90.6z"/>
</svg>
